# xmcd
#
# Track frame offsets:
#	150
#	17328
#	38531
#	53516
#	72383
#	88345
#	105847
#	122741
#	140427
#	158009
#	177120
#	195831
#	207948
#	226221
#	243230
#
# Disc length: 3441 seconds
#
# Revision: 1
# Processed by: cddbd v1.5.2PL0 Copyright (c) Steve Scherf et al.
# Submitted via: audiograbber 1.83.01
#
DISCID=b00d6f0f
DTITLE=Chartbuster - CB80010
DYEAR=1999
DGENRE=Karaoke
TTITLE0=Tracy Byrd - I'm From The Country
TTITLE1=Vince Gill - If You Ever Have Forever In Mind
TTITLE2=Randy Travis - Hole
TTITLE3=Alan Jackson - I'll Go On Loving You
TTITLE4=Toby keith - Getcha Some
TTITLE5=T Graham Brown - Wine Into Water
TTITLE6=David Kersh - If I Never Stop loving you
TTITLE7=Garth Brooks - Two Pina Coladas
TTITLE8=Ty Herndon - Man Holdin' On
TTITLE9=Keith Harling - Papa Bear
TTITLE10=Garth Brooks - To Make You Feel My Love
TTITLE11=Gearge Strait - We Really Shouldn't Be Doing This
TTITLE12=Sammy Kershaw - Matches
TTITLE13=Diamond Rio - You're Gone
TTITLE14=Steve Wariner - Every Little Whisper
EXTD=
EXTT0=
EXTT1=
EXTT2=
EXTT3=
EXTT4=
EXTT5=
EXTT6=
EXTT7=
EXTT8=
EXTT9=
EXTT10=
EXTT11=
EXTT12=
EXTT13=
EXTT14=
PLAYORDER=
